<?xml version="1.0" encoding="utf-8"?>
<!-- Generator: Adobe Illustrator 16.0.0, SVG Export Plug-In . SVG Version: 6.00 Build 0)  -->
<!DOCTYPE svg PUBLIC "-//W3C//DTD SVG 1.1//EN" "http://www.w3.org/Graphics/SVG/1.1/DTD/svg11.dtd">
<svg version="1.1" id="图层_1" xmlns="http://www.w3.org/2000/svg" xmlns:xlink="http://www.w3.org/1999/xlink" x="0px" y="0px"
	 width="37.916px" height="37.133px" viewBox="0 0 37.916 37.133" enable-background="new 0 0 37.916 37.133" xml:space="preserve">
<g>
	<defs>
		<polyline id="SVGID_1_" points="0,0 152.666,0 152.666,37.133 0,37.133 0,0 		"/>
	</defs>
	<clipPath id="SVGID_2_">
		<use xlink:href="#SVGID_1_"  overflow="visible"/>
	</clipPath>
	<path clip-path="url(#SVGID_2_)" fill="#2165A9" d="M18.682,0.446c-10.043,0-18.213,8.171-18.213,18.212
		c0,10.047,8.17,18.217,18.213,18.217s18.213-8.17,18.213-18.217C36.895,8.617,28.725,0.446,18.682,0.446 M18.682,36.084
		c-9.607,0-17.421-7.815-17.421-17.426c0-9.602,7.814-17.422,17.421-17.422c9.606,0,17.422,7.82,17.422,17.422
		C36.104,28.269,28.288,36.084,18.682,36.084"/>
	<path clip-path="url(#SVGID_2_)" fill="#2265A9" d="M31.626,18.727c0-7.227-5.858-13.084-13.082-13.084
		c-7.229,0-13.087,5.857-13.087,13.084c0,0.908,0.093,1.797,0.268,2.653c-0.733,0.134-2.004,0.375-2.81,0.603l3.81,6.934
		c0,0,1.224-0.453,2.966-0.551c2.331,2.137,5.438,3.445,8.853,3.445c3.406,0,6.508-1.301,8.833-3.434
		c0.091-0.006,1.364-0.031,3.104,0.544l3.747-6.933c0,0-0.984-0.333-2.875-0.58C31.531,20.543,31.626,19.645,31.626,18.727
		 M21.83,11.823h4.136v2.254c-0.452-0.388-1.203-0.642-2.054-0.642c-0.867,0-1.631,0.262-2.082,0.663V11.823z M21.83,15.314h4.136
		v2.256c-0.452-0.389-1.203-0.641-2.054-0.641c-0.867,0-1.631,0.262-2.082,0.662V15.314z M23.926,18.727
		c0,0-0.134,1.453-1.936,1.508h-6.865c0,0-1.463,0.188-2.053-1.508H23.926z M16.428,8.518h4.14v2.255
		c-0.454-0.386-1.206-0.642-2.057-0.642c-0.866,0-1.631,0.264-2.083,0.664V8.518z M16.428,11.823h4.14v2.254
		c-0.454-0.388-1.206-0.642-2.057-0.642c-0.866,0-1.631,0.262-2.083,0.663V11.823z M16.428,15.314h4.14v2.256
		c-0.454-0.389-1.206-0.641-2.057-0.641c-0.866,0-1.631,0.262-2.083,0.662V15.314z M11.029,11.823h4.138v2.254
		c-0.454-0.388-1.207-0.642-2.056-0.642c-0.867,0-1.631,0.262-2.082,0.663V11.823z M11.029,15.314h4.138v2.256
		c-0.454-0.389-1.207-0.641-2.056-0.641c-0.867,0-1.631,0.262-2.082,0.662V15.314z M33.582,22.373l-3.312,5.961
		c-6.137-1.656-10.621,0.687-10.621,0.687h-2.194c-5.227-2.398-10.489-0.726-10.489-0.726L3.8,22.334
		c11.014-2.324,14.589,0.73,14.589,0.73h0.351C23.943,19.894,33.582,22.373,33.582,22.373"/>
	<path clip-path="url(#SVGID_2_)" fill="#2165A9" d="M12.35,31.887c-0.267,0.023-0.505,0.02-0.715-0.008l-0.121,0.373
		c0.4,0.055,0.764,0.057,1.09,0.006l-0.495,1.54l0.767,0.247l0.69-2.148l-0.623-0.199C12.814,31.798,12.616,31.861,12.35,31.887"/>
	<path clip-path="url(#SVGID_2_)" fill="#2165A9" d="M16.404,32.581c-0.387-0.053-0.715-0.024-0.986,0.081
		c-0.27,0.104-0.418,0.271-0.447,0.493c-0.029,0.218,0.068,0.407,0.288,0.575c0.22,0.167,0.493,0.268,0.819,0.311
		c0.303,0.041,0.562,0.014,0.778-0.088c-0.064,0.256-0.16,0.416-0.285,0.484c-0.126,0.064-0.271,0.09-0.433,0.07
		c-0.129-0.021-0.23-0.053-0.305-0.104s-0.113-0.122-0.121-0.206l-0.783-0.055c0.034,0.189,0.146,0.345,0.332,0.465
		c0.187,0.117,0.443,0.198,0.77,0.242c0.45,0.061,0.83,0.016,1.134-0.126c0.307-0.144,0.484-0.42,0.538-0.826
		c0.054-0.401-0.045-0.708-0.292-0.917C17.163,32.769,16.825,32.637,16.404,32.581 M16.658,33.703
		c-0.115,0.053-0.248,0.066-0.4,0.044c-0.16-0.018-0.289-0.071-0.386-0.151c-0.096-0.08-0.136-0.193-0.118-0.338
		c0.02-0.14,0.08-0.236,0.186-0.285c0.107-0.049,0.234-0.063,0.383-0.045c0.154,0.02,0.286,0.076,0.396,0.168
		c0.107,0.09,0.152,0.203,0.135,0.342C16.837,33.563,16.771,33.652,16.658,33.703"/>
	<path clip-path="url(#SVGID_2_)" fill="#2165A9" d="M21.176,32.749c-0.246-0.131-0.568-0.169-0.973-0.124
		c-0.405,0.047-0.709,0.16-0.918,0.338c-0.252,0.217-0.354,0.535-0.305,0.955c0.049,0.428,0.208,0.716,0.475,0.854
		c0.268,0.139,0.604,0.184,1.01,0.137c0.404-0.047,0.71-0.16,0.918-0.338c0.25-0.217,0.354-0.535,0.305-0.957
		C21.637,33.189,21.468,32.899,21.176,32.749 M20.828,34.278c-0.029,0.09-0.082,0.156-0.154,0.198
		c-0.07,0.042-0.153,0.068-0.25,0.077c-0.095,0.011-0.183,0.008-0.26-0.019c-0.078-0.023-0.148-0.08-0.206-0.175
		c-0.062-0.091-0.106-0.271-0.138-0.534c-0.029-0.263-0.023-0.451,0.019-0.57c0.032-0.092,0.081-0.156,0.153-0.198
		c0.072-0.043,0.154-0.071,0.249-0.081c0.098-0.009,0.184-0.004,0.263,0.022c0.078,0.024,0.146,0.084,0.208,0.175
		c0.059,0.096,0.104,0.273,0.134,0.533C20.877,33.972,20.871,34.162,20.828,34.278"/>
	<path clip-path="url(#SVGID_2_)" fill="#2165A9" d="M24.672,31.656c-0.316-0.067-0.676-0.021-1.073,0.129
		c-0.366,0.143-0.644,0.324-0.829,0.543c-0.185,0.223-0.236,0.439-0.154,0.649c0.078,0.2,0.252,0.325,0.525,0.366
		c0.272,0.039,0.563,0.001,0.873-0.117c0.282-0.111,0.496-0.26,0.637-0.451c0.065,0.255,0.059,0.442-0.019,0.563
		c-0.079,0.116-0.194,0.204-0.347,0.265c-0.122,0.048-0.227,0.068-0.317,0.055c-0.087-0.007-0.157-0.045-0.205-0.121l-0.714,0.326
		c0.121,0.15,0.293,0.234,0.514,0.25c0.224,0.015,0.486-0.037,0.793-0.154c0.425-0.166,0.734-0.382,0.936-0.654
		c0.197-0.273,0.225-0.599,0.077-0.984C25.223,31.943,24.99,31.723,24.672,31.656 M24.358,32.652
		c-0.076,0.096-0.187,0.176-0.332,0.23c-0.149,0.057-0.288,0.076-0.411,0.051c-0.123-0.023-0.213-0.105-0.264-0.242
		c-0.051-0.13-0.042-0.246,0.026-0.336c0.069-0.098,0.173-0.168,0.313-0.225c0.145-0.057,0.288-0.071,0.428-0.041
		c0.139,0.027,0.232,0.109,0.282,0.235C24.447,32.443,24.431,32.551,24.358,32.652"/>
	<path clip-path="url(#SVGID_2_)" fill="#2165A9" d="M3.57,17.846c0.068-0.159,0.113-0.262,0.139-0.306
		c0.037-0.063,0.079-0.108,0.124-0.132c0.046-0.023,0.102-0.029,0.162-0.025C4.09,17.391,4.174,17.43,4.239,17.5
		c0.07,0.066,0.099,0.165,0.089,0.289c-0.01,0.119-0.06,0.21-0.145,0.273c-0.087,0.063-0.218,0.102-0.392,0.107l0.018,0.387
		c0.296-0.003,0.524-0.065,0.688-0.186c0.165-0.115,0.255-0.299,0.275-0.54c0.012-0.171-0.007-0.313-0.063-0.429
		c-0.054-0.119-0.146-0.212-0.272-0.283c-0.126-0.075-0.263-0.115-0.415-0.129c-0.166-0.012-0.308,0.003-0.425,0.045
		c-0.117,0.043-0.211,0.106-0.286,0.193c-0.071,0.086-0.145,0.219-0.221,0.4c-0.077,0.188-0.145,0.302-0.204,0.35
		c-0.047,0.035-0.1,0.048-0.165,0.043c-0.067-0.006-0.119-0.031-0.156-0.076c-0.058-0.068-0.084-0.158-0.075-0.269
		C2.5,17.564,2.537,17.487,2.6,17.436c0.063-0.051,0.162-0.076,0.297-0.082l0.01-0.394c-0.241-0.013-0.439,0.038-0.593,0.146
		c-0.156,0.11-0.242,0.29-0.26,0.528c-0.011,0.15,0.008,0.281,0.061,0.391c0.054,0.107,0.137,0.194,0.248,0.26
		c0.112,0.064,0.236,0.101,0.369,0.112c0.208,0.019,0.389-0.028,0.543-0.134C3.383,18.188,3.482,18.046,3.57,17.846"/>
	<polygon clip-path="url(#SVGID_2_)" fill="#2165A9" points="4.901,16.421 3.775,16.186 3.934,15.438 5.058,15.671 5.137,15.291 
		2.567,14.75 2.485,15.131 3.501,15.346 3.343,16.094 2.33,15.883 2.248,16.264 4.82,16.805 	"/>
	<path clip-path="url(#SVGID_2_)" fill="#2165A9" d="M5.301,14.773l-0.51-0.353l0.263-0.733l0.617,0.041l0.142-0.396l-2.737-0.143
		l-0.141,0.392l2.226,1.587L5.301,14.773z M4.413,14.158L3.582,13.59l1.012,0.07L4.413,14.158z"/>
	<polygon clip-path="url(#SVGID_2_)" fill="#2165A9" points="6.039,12.907 4.507,12.114 6.401,12.208 6.58,11.86 4.245,10.652 
		4.078,10.976 5.643,11.783 3.712,11.685 3.539,12.021 5.872,13.229 	"/>
	<path clip-path="url(#SVGID_2_)" fill="#2165A9" d="M5.625,10.869c0.205,0.145,0.421,0.25,0.639,0.313
		c0.218,0.062,0.419,0.066,0.602,0.008c0.18-0.059,0.328-0.168,0.448-0.333c0.092-0.134,0.148-0.279,0.172-0.457
		c0.024-0.174,0.015-0.327-0.026-0.459L6.603,9.336l-0.488,0.688l0.363,0.257l0.26-0.367l0.271,0.191
		c0.018,0.084,0.02,0.175,0.008,0.269c-0.012,0.091-0.042,0.171-0.09,0.239c-0.097,0.136-0.237,0.2-0.425,0.194
		c-0.185-0.007-0.408-0.098-0.663-0.282c-0.236-0.166-0.385-0.336-0.447-0.502S5.351,9.703,5.45,9.561
		C5.514,9.47,5.6,9.415,5.705,9.393c0.105-0.015,0.219,0,0.341,0.055l0.144-0.372C5.968,8.967,5.763,8.928,5.572,8.959
		C5.38,8.99,5.216,9.104,5.076,9.299C4.97,9.45,4.917,9.604,4.916,9.754c0,0.199,0.06,0.396,0.186,0.589
		C5.226,10.533,5.4,10.71,5.625,10.869"/>
	<polygon clip-path="url(#SVGID_2_)" fill="#2165A9" points="8.199,9.662 7.363,8.877 7.887,8.316 8.724,9.104 8.99,8.82 
		7.078,7.021 6.81,7.305 7.564,8.014 7.039,8.572 6.284,7.863 6.017,8.146 7.932,9.947 	"/>
	<path clip-path="url(#SVGID_2_)" fill="#2165A9" d="M9.398,8.461L9.145,7.896l0.606-0.493l0.504,0.358l0.328-0.265L8.317,5.951
		L7.994,6.215l1.078,2.508L9.398,8.461z M8.544,6.559l0.825,0.583L8.958,7.479L8.544,6.559z"/>
	
		<rect x="8.83" y="6.05" transform="matrix(0.5575 0.8302 -0.8302 0.5575 9.6713 -5.6569)" clip-path="url(#SVGID_2_)" fill="#2165A9" width="2.626" height="0.389"/>
	<polygon clip-path="url(#SVGID_2_)" fill="#2165A9" points="12.261,6.505 11.393,4.627 12.609,6.346 12.952,6.187 12.429,4.149 
		13.3,6.025 13.629,5.871 12.525,3.488 11.991,3.734 12.43,5.506 11.362,4.027 10.828,4.274 11.93,6.657 	"/>
	<path clip-path="url(#SVGID_2_)" fill="#2165A9" d="M14.121,5.717L14.104,5.1l0.747-0.223l0.331,0.526l0.404-0.119l-1.5-2.299
		l-0.399,0.119l0.031,2.73L14.121,5.717z M14.602,4.489l-0.511,0.15l-0.028-1.009L14.602,4.489z"/>
	<path clip-path="url(#SVGID_2_)" fill="#2165A9" d="M16.091,5.208l-0.168-1.083L16,4.113C16.09,4.1,16.154,4.1,16.199,4.111
		c0.045,0.014,0.088,0.044,0.133,0.09c0.045,0.049,0.131,0.164,0.262,0.351l0.366,0.522l0.461-0.07L17.11,4.532
		c-0.123-0.187-0.219-0.315-0.285-0.388c-0.066-0.07-0.146-0.133-0.24-0.188c0.163-0.06,0.275-0.156,0.342-0.298
		c0.063-0.14,0.08-0.308,0.049-0.501c-0.023-0.154-0.072-0.287-0.146-0.395c-0.074-0.113-0.161-0.186-0.261-0.217
		c-0.101-0.033-0.251-0.033-0.456-0.001l-0.812,0.126l0.403,2.596L16.091,5.208z M16.058,3.004c0.154-0.024,0.25-0.035,0.28-0.035
		C16.404,2.975,16.456,3,16.5,3.048c0.042,0.052,0.071,0.119,0.083,0.208c0.013,0.074,0.01,0.142-0.009,0.198
		c-0.019,0.058-0.047,0.099-0.09,0.128c-0.043,0.027-0.156,0.056-0.341,0.086L15.859,3.71l-0.102-0.659L16.058,3.004z"/>
	
		<rect x="16.369" y="3.504" transform="matrix(0.0612 0.9981 -0.9981 0.0612 20.2933 -14.1782)" clip-path="url(#SVGID_2_)" fill="#2165A9" width="2.631" height="0.391"/>
	<polygon clip-path="url(#SVGID_2_)" fill="#2165A9" points="18.726,4.982 19.115,4.992 19.16,2.807 19.732,2.818 19.742,2.375 
		18.207,2.346 18.199,2.789 18.771,2.799 	"/>
	
		<rect x="20.056" y="2.442" transform="matrix(0.9939 0.1104 -0.1104 0.9939 0.5386 -2.2134)" clip-path="url(#SVGID_2_)" fill="#2165A9" width="0.389" height="2.628"/>
	<polygon clip-path="url(#SVGID_2_)" fill="#2165A9" points="21.461,3.156 21.398,5.26 21.766,5.336 22.574,3.395 22.141,5.418 
		22.495,5.492 23.049,2.927 22.474,2.802 21.761,4.48 21.795,2.655 21.221,2.53 20.668,5.101 21.021,5.179 	"/>
	<polygon clip-path="url(#SVGID_2_)" fill="#2165A9" points="24.163,6.102 24.315,5.685 23.298,5.311 23.544,4.643 24.459,4.98 
		24.611,4.563 23.698,4.227 23.898,3.678 24.881,4.039 25.035,3.622 23.686,3.125 22.778,5.592 	"/>
	<path clip-path="url(#SVGID_2_)" fill="#2165A9" d="M25.698,6.964c0.131,0.075,0.253,0.118,0.362,0.12s0.209-0.021,0.305-0.07
		c0.094-0.047,0.185-0.123,0.268-0.223c0.085-0.103,0.207-0.291,0.369-0.563l0.703-1.189l-0.336-0.197l-0.74,1.251
		c-0.107,0.179-0.189,0.304-0.242,0.375c-0.057,0.074-0.124,0.119-0.203,0.146c-0.081,0.025-0.168,0.007-0.263-0.047
		c-0.095-0.057-0.151-0.129-0.175-0.218c-0.019-0.089-0.01-0.183,0.029-0.284c0.027-0.062,0.097-0.189,0.212-0.387l0.726-1.226
		l-0.338-0.198l-0.714,1.211c-0.149,0.251-0.252,0.449-0.306,0.591c-0.037,0.097-0.055,0.2-0.055,0.308s0.027,0.213,0.081,0.313
		C25.434,6.771,25.54,6.87,25.698,6.964"/>
	<polygon clip-path="url(#SVGID_2_)" fill="#2165A9" points="26.923,7.709 27.988,6.357 27.539,8.195 27.847,8.439 29.475,6.374 
		29.188,6.148 28.1,7.533 28.563,5.656 28.265,5.42 26.637,7.486 	"/>
	
		<rect x="27.824" y="7.669" transform="matrix(-0.6883 0.7255 -0.7255 -0.6883 54.8951 -7.862)" clip-path="url(#SVGID_2_)" fill="#2165A9" width="2.626" height="0.388"/>
	<polygon clip-path="url(#SVGID_2_)" fill="#2165A9" points="30.729,7.596 30.447,7.275 28.932,9.529 29.213,9.847 31.638,8.623 
		31.364,8.313 29.592,9.247 	"/>
	<polygon clip-path="url(#SVGID_2_)" fill="#2165A9" points="30.573,11.689 30.938,11.438 30.325,10.543 30.915,10.141 
		31.464,10.942 31.832,10.695 31.28,9.89 31.761,9.559 32.353,10.423 32.72,10.172 31.908,8.985 29.738,10.471 	"/>
	<path clip-path="url(#SVGID_2_)" fill="#2165A9" d="M30.879,12.249l0.976-0.498l0.037,0.07c0.037,0.08,0.061,0.139,0.063,0.186
		c0,0.049-0.014,0.1-0.045,0.156s-0.113,0.176-0.252,0.358l-0.38,0.511l0.214,0.417l0.35-0.442c0.139-0.179,0.229-0.31,0.275-0.392
		c0.049-0.086,0.082-0.184,0.104-0.288c0.105,0.136,0.236,0.215,0.391,0.229c0.152,0.018,0.316-0.018,0.492-0.109
		c0.139-0.07,0.248-0.157,0.33-0.262c0.082-0.105,0.123-0.214,0.123-0.314c0-0.105-0.049-0.25-0.141-0.434l-0.375-0.73l-2.339,1.194
		L30.879,12.249z M32.822,11.255l0.141,0.271c0.072,0.14,0.113,0.229,0.121,0.257c0.016,0.064,0.006,0.121-0.025,0.178
		c-0.033,0.058-0.088,0.105-0.168,0.143c-0.07,0.037-0.137,0.055-0.195,0.057c-0.055,0-0.107-0.014-0.148-0.047
		c-0.041-0.032-0.102-0.132-0.188-0.295l-0.131-0.258L32.822,11.255z"/>
	<path clip-path="url(#SVGID_2_)" fill="#2165A9" d="M32.91,13.246c-0.068,0.113-0.102,0.281-0.098,0.504
		c0.002,0.17,0.002,0.281-0.004,0.328c-0.008,0.078-0.027,0.131-0.059,0.174c-0.035,0.04-0.078,0.071-0.137,0.092
		c-0.094,0.031-0.182,0.031-0.273-0.005c-0.088-0.037-0.154-0.114-0.197-0.229c-0.041-0.113-0.033-0.219,0.02-0.308
		c0.053-0.096,0.158-0.179,0.314-0.264L32.3,13.197c-0.268,0.121-0.453,0.27-0.555,0.446c-0.1,0.177-0.109,0.378-0.025,0.608
		c0.053,0.159,0.135,0.284,0.232,0.364c0.096,0.088,0.217,0.136,0.363,0.15c0.146,0.013,0.287-0.005,0.43-0.056
		c0.158-0.055,0.281-0.127,0.369-0.215c0.092-0.086,0.15-0.182,0.182-0.289c0.029-0.107,0.043-0.262,0.037-0.461
		c-0.006-0.202,0.01-0.333,0.047-0.398c0.027-0.051,0.07-0.088,0.129-0.107c0.066-0.02,0.123-0.02,0.176,0.002
		c0.082,0.041,0.141,0.114,0.176,0.22c0.039,0.104,0.039,0.19,0,0.261c-0.035,0.072-0.113,0.139-0.234,0.201l0.148,0.359
		c0.229-0.088,0.385-0.213,0.482-0.379c0.096-0.162,0.102-0.36,0.021-0.588c-0.051-0.142-0.121-0.248-0.217-0.329
		c-0.092-0.077-0.203-0.122-0.332-0.134c-0.129-0.014-0.256,0-0.381,0.047C33.152,12.97,33.005,13.084,32.91,13.246"/>
	
		<rect x="32.085" y="14.888" transform="matrix(-0.9681 0.2507 -0.2507 -0.9681 69.5149 21.3103)" clip-path="url(#SVGID_2_)" fill="#2165A9" width="2.629" height="0.392"/>
	<polygon clip-path="url(#SVGID_2_)" fill="#2165A9" points="34.488,15.969 32.335,16.342 32.404,16.729 34.554,16.357 
		34.652,16.919 35.091,16.846 34.828,15.332 34.392,15.406 	"/>
	<polygon clip-path="url(#SVGID_2_)" fill="#2165A9" points="32.544,17.974 32.564,18.367 33.664,18.308 35.226,18.938 
		35.203,18.486 34.136,18.096 35.156,17.587 35.128,17.123 33.648,17.918 	"/>
	<path clip-path="url(#SVGID_2_)" fill="#2165A9" d="M10.107,25.779c-0.054-0.006-0.11,0.027-0.172,0.037
		c-0.207,0.033-0.412,0.053-0.644,0.102c-0.103,0.019-0.215,0.066-0.333,0.047c-0.073-0.127-0.164-0.436-0.112-0.641
		c0.026-0.108,0.083-0.215,0.103-0.34c0.041-0.24-0.038-0.49,0.041-0.701c0.028-0.068,0.093-0.113,0.131-0.17
		c0.026-0.04,0.14-0.401,0.121-0.452c-0.017-0.037-0.038-0.068-0.057-0.103c-0.056-0.034-0.11-0.048-0.208-0.041
		c-0.329,0.168-0.388,0.547-0.444,0.977c0.01,0.117,0.02,0.234,0.029,0.354c-0.014,0.191-0.025,0.381-0.037,0.573
		c0.036,0.156,0.068,0.354,0.076,0.571c-0.058,0.046-0.124,0.04-0.214,0.043c-0.083,0.008-0.17,0.014-0.254,0.018
		C7.9,26.02,7.815,25.896,7.643,26.138c-0.047,0.066-0.147,0.132-0.086,0.281c0.043,0.106,0.33,0.204,0.477,0.216
		c0.667,0.06,1.252-0.127,1.793-0.277c0.088-0.02,0.179-0.039,0.268-0.06c0.064-0.031,0.14-0.106,0.204-0.142
		c0.056-0.03,0.139-0.006,0.166-0.066C10.544,25.88,10.25,25.798,10.107,25.779"/>
	<path clip-path="url(#SVGID_2_)" fill="#2165A9" d="M18.885,25.242c-0.047-0.133-0.098-0.27-0.146-0.402
		c-0.036-0.158,0.013-0.332-0.06-0.439c-0.088-0.016-0.15,0-0.229,0.023c-0.062-0.01-0.126-0.016-0.188-0.023
		c-0.154,0.131-0.512,0.141-0.801,0.144c-0.008-0.012-0.01-0.024-0.018-0.034c0.094-0.195,0.477-0.515,0.676-0.615
		c0.079-0.041,0.187-0.008,0.269-0.035c0.074-0.026,0.203-0.152,0.156-0.255c-0.037-0.065-0.162-0.09-0.258-0.062
		c-0.046,0.03-0.09,0.056-0.134,0.081c-0.191,0.009-0.385,0.017-0.576,0.024c-0.086,0.001-0.205,0.05-0.271,0.013
		c-0.04-0.031-0.048-0.097-0.09-0.131c-0.05-0.006-0.099-0.009-0.148-0.009c-0.087,0.043-0.145,0.052-0.198,0.127
		c-0.014,0.107-0.023,0.219-0.037,0.331c0.252,0.15,0.527,0.022,0.826-0.016c0.053-0.001,0.104-0.005,0.154-0.007h0.014
		c-0.014,0.106-0.398,0.367-0.492,0.439c-0.219,0.179-0.427,0.417-0.586,0.652c-0.059,0.109-0.119,0.219-0.178,0.326
		c-0.055,0.02-0.108,0.037-0.161,0.061c-0.191,0.079-0.476,0.178-0.582,0.344c-0.012,0-0.022,0-0.033,0
		c-0.111-0.199-0.086-0.787,0.02-0.939c0.049-0.068,0.183-0.049,0.212-0.133c0.04-0.113-0.029-0.268-0.043-0.351
		c0.011-0.012,0.022-0.026,0.032-0.032c0.299,0.037,0.334-0.03,0.382-0.297c0.007-0.043,0.028-0.095,0.003-0.147
		c-0.027-0.048-0.324-0.181-0.402-0.156c-0.055,0.031-0.201,0.287-0.176,0.397c0.014,0.066,0.069,0.113,0.037,0.192
		c-0.045,0.119-0.186,0.161-0.212,0.296c-0.013,0.066,0.029,0.094,0.046,0.133c0.025,0.071,0.012,0.168-0.002,0.241
		c-0.083,0.396-0.229,0.783-0.133,1.257c0.023,0.113-0.042,0.238,0.002,0.326c0.013,0.027,0.027,0.037,0.057,0.046
		c0.043,0.017,0.094-0.006,0.126-0.017c0.276-0.09,0.091-0.344,0.221-0.531c0.03-0.051,0.272-0.189,0.371-0.166
		c0.022,0.164-0.077,0.42,0.048,0.557c0.072,0.08,0.212,0.072,0.327,0.102c0.27,0.066,0.627,0.07,0.901-0.019
		c0.121-0.046,0.243-0.088,0.366-0.131c0.131-0.011,0.263-0.022,0.396-0.032c0.105-0.066,0.168-0.287,0.049-0.371
		c0-0.014,0-0.029,0-0.04c0.063-0.042,0.128-0.085,0.19-0.128c0.05-0.049,0.063-0.117,0.13-0.152
		c0.174-0.055,0.295,0.177,0.469-0.073C19.371,25.383,19.043,25.27,18.885,25.242 M18.184,25.896
		c-0.109-0.016-0.139-0.115-0.245-0.13c-0.01,0.007-0.018,0.013-0.025,0.015c-0.022,0.129,0.014,0.166,0.04,0.262
		c-0.003,0.006-0.005,0.01-0.006,0.012c-0.188,0.1-1.091,0.049-1.251-0.025c-0.014-0.057,0.006-0.135,0.041-0.166
		c0.037-0.031,0.41-0.15,0.46-0.137c0.009,0.003,0.014,0.003,0.021,0.006c0.021,0.131-0.007,0.18,0.055,0.289
		c0.517,0.121,0.319-0.235,0.515-0.363c0.142,0.003,0.41-0.039,0.546,0.012C18.412,25.725,18.223,25.869,18.184,25.896
		 M18.48,25.207c-0.085,0.052-0.596,0.035-0.712,0c-0.014-0.045-0.027-0.094-0.038-0.141c-0.058-0.012-0.144-0.035-0.208-0.012
		c-0.074,0.036-0.094,0.141-0.135,0.204c-0.114,0.026-0.266,0.046-0.377,0.024c-0.005-0.008-0.011-0.018-0.014-0.025
		c-0.033-0.087,0.098-0.266,0.138-0.328c0.057,0,0.112,0.002,0.167,0.002c0.079-0.021,0.189-0.059,0.296-0.076
		c0.184-0.03,0.513,0.026,0.737-0.065c0.017,0.001,0.034,0.001,0.054,0.003C18.475,24.842,18.498,25.076,18.48,25.207"/>
	<path clip-path="url(#SVGID_2_)" fill="#2165A9" d="M14.676,25.193c-0.2-0.128-0.029-0.503-0.287-0.624
		c-0.223-0.104-0.853,0.142-1.12,0.087c-0.029,0.009-0.04,0.003-0.048-0.034c0.075-0.126,0.362-0.44,0.496-0.492
		c0.087-0.031,0.192,0,0.283-0.032c0.055-0.024,0.066-0.102,0.109-0.133c0.079-0.053,0.17-0.049,0.212-0.135
		c0.005-0.021,0.008-0.041,0.012-0.066c-0.034-0.055-0.066-0.083-0.118-0.117c-0.193-0.027-0.756,0.219-0.918,0.082
		c0.016-0.067,0.033-0.139,0.047-0.207c0.053-0.07,0.185-0.098,0.143-0.244c-0.019-0.022-0.038-0.049-0.057-0.07
		c-0.054-0.006-0.106-0.006-0.161-0.011c-0.055,0.042-0.119,0.063-0.158,0.121c-0.022,0.029-0.043,0.065-0.065,0.1
		c-0.261,0.212-0.553,0.362-0.783,0.601c-0.366,0.377-0.617,0.87-0.828,1.394c-0.046,0.118-0.09,0.235-0.137,0.354
		c-0.007,0.158-0.013,0.318-0.02,0.479c-0.012,0.047-0.053,0.094-0.035,0.168c0.012,0.059,0.035,0.164,0.065,0.205
		c0.141,0.031,0.314-0.014,0.346-0.129c0.041-0.15-0.115-0.257-0.134-0.398c-0.021-0.156,0.077-0.622,0.127-0.766
		c0.135-0.375,0.457-0.963,0.733-1.197c0.157-0.119,0.316-0.241,0.473-0.361c0.01-0.002,0.019-0.002,0.028-0.002
		c0.038,0.079-0.004,0.221,0.047,0.297c0.09,0.132,0.413,0.072,0.594,0.086c0.002,0.008,0.007,0.018,0.008,0.031
		c-0.102,0.1-0.207,0.201-0.307,0.304c-0.047,0.06-0.092,0.113-0.136,0.172c-0.044,0.017-0.085,0.031-0.128,0.052
		c-0.066,0.068-0.135,0.137-0.202,0.207c-0.036,0.051-0.037,0.107-0.063,0.17c-0.015,0.027-0.196,0.339-0.212,0.348
		c-0.106,0.068-0.283,0.054-0.402,0.053c-0.031,0.032-0.061,0.063-0.09,0.095c-0.164,0.11-0.349,0.099-0.34,0.371
		c0.227,0.244,0.412,0.047,0.694,0.024c0.018,0.034,0.002,0.066,0.009,0.111c0.026,0.162,0.026,0.295,0.105,0.396
		c0.185,0.23,0.625,0.142,0.929,0.078c0.068,0,0.13,0.002,0.196,0.002c0.178-0.043,0.331-0.125,0.554-0.127
		c0.049-0.076,0.194-0.295,0.071-0.379c0.008-0.037,0.367-0.399,0.397-0.409c0.099-0.026,0.158,0.034,0.248-0.037
		c0.085-0.074,0.11-0.257,0.019-0.347C14.822,25.212,14.741,25.23,14.676,25.193 M13.813,26.072
		c-0.203,0.078-0.978,0.188-1.083-0.01c-0.034-0.068-0.016-0.166,0.013-0.211c0.079-0.018,0.353-0.086,0.442-0.06
		c0.092,0.03,0.174,0.119,0.325,0.079c0.11-0.025,0.124-0.116,0.204-0.162c0.076-0.016,0.15-0.033,0.227-0.051
		c0.064-0.003,0.137-0.008,0.183,0.008c0.001,0.007,0.005,0.014,0.007,0.021C14.03,25.828,13.887,25.901,13.813,26.072
		 M14.25,25.186c-0.039,0.067-0.15,0.01-0.246,0.026c-0.121,0.011-0.241,0.026-0.362,0.037c-0.075-0.021-0.14-0.127-0.238-0.114
		c-0.127,0.019-0.107,0.145-0.199,0.18c-0.071,0.028-0.227,0.049-0.307,0.028c-0.012-0.073,0.027-0.226,0.087-0.257
		c0.067,0.005,0.134,0.011,0.201,0.014c0.218-0.02,0.749-0.049,0.911-0.131c0.027-0.002,0.054-0.002,0.082-0.004
		C14.211,25.004,14.281,25.108,14.25,25.186"/>
	<path clip-path="url(#SVGID_2_)" fill="#2165A9" d="M11.327,24.709c0.01,0.037,0.02,0.075,0.031,0.115
		c0.028,0.001,0.227-0.059,0.273-0.078c0.081-0.158-0.026-0.322-0.04-0.495c0.002-0.005,0.004-0.009,0.006-0.011
		c0.109-0.064,0.261,0.137,0.428-0.015c0.198-0.179,0.162-0.612-0.178-0.607c-0.108,0.083-0.233,0.179-0.281,0.318
		c-0.033,0.099-0.019,0.227-0.073,0.304c-0.066,0.098-0.228,0.176-0.258,0.298C11.208,24.648,11.294,24.665,11.327,24.709"/>
	<path clip-path="url(#SVGID_2_)" fill="#2165A9" d="M27.217,25.318c0.228,0.105,0.173-0.486,0.217-0.59
		c0.054-0.117,0.435-0.164,0.596-0.207c0.518-0.133,1.055-0.327,1.663-0.334c0.006,0.007,0.013,0.014,0.021,0.021
		c-0.014,0.094-0.038,0.167,0.077,0.164c0.046,0.066,0.069,0.159,0.147,0.191c0.25,0.102,0.401-0.252,0.329-0.494
		c-0.063-0.207-0.376-0.221-0.618-0.237c-0.003-0.013-0.006-0.026-0.009-0.042c0.15-0.201,0.274-0.52,0.165-0.869
		c-0.041-0.076-0.209-0.118-0.318-0.071c-0.197,0.083-0.369,0.31-0.607,0.346c-0.004-0.001-0.004-0.003-0.008-0.009
		c-0.016-0.107,0.082-0.229,0.042-0.355c-0.011-0.028-0.021-0.041-0.046-0.053c-0.031,0-0.061-0.001-0.088-0.006
		c-0.176,0.096-0.24,0.219-0.348,0.373c-0.007,0.003-0.018,0.003-0.026,0.003c-0.023-0.069-0.04-0.099-0.077-0.147
		c-0.265-0.053-0.361,0.574-0.532,0.701c-0.002-0.002-0.006-0.004-0.008-0.005c0.002-0.065,0.006-0.132,0.009-0.196
		c0.031-0.018,0.053-0.009,0.086-0.022c0.088-0.063-0.002-0.349-0.076-0.382c-0.094,0.006-0.18,0.056-0.199,0.127
		c0.005,0.043,0.006,0.084,0.01,0.128c-0.031,0.158-0.07,0.309-0.038,0.511c0.011,0.076,0.04,0.197,0.014,0.277
		c-0.003,0.004-0.005,0.011-0.005,0.018c-0.061,0.006-0.092-0.026-0.144-0.043c-0.087-0.025-0.216,0.058-0.252,0.109
		c-0.13,0.183-0.087,0.657-0.03,0.861C27.179,25.145,27.17,25.296,27.217,25.318 M29.029,23.582c0.018-0.07-0.008-0.177,0.029-0.229
		c0.07-0.112,0.302-0.114,0.426-0.181c0.093,0.006,0.085,0.16,0.071,0.233c-0.024,0.128-0.14,0.411-0.271,0.39
		c-0.004-0.006-0.006-0.015-0.008-0.018c0.051-0.066,0.254-0.169,0.207-0.291c-0.035-0.071-0.132-0.061-0.215-0.04
		c-0.25,0.06-0.186,0.243-0.26,0.431c-0.035,0.008-0.068,0.012-0.105,0.018c-0.002-0.01-0.007-0.021-0.008-0.033
		C28.949,23.783,29.002,23.682,29.029,23.582 M28.453,23.375c0.035,0.021,0.102,0.105,0.091,0.164
		c-0.029,0.054-0.058,0.107-0.089,0.16c-0.03,0.096-0.061,0.193-0.093,0.291c-0.032,0.012-0.063,0.021-0.114,0.021
		c-0.002-0.001-0.006-0.002-0.006-0.004C28.254,23.689,28.273,23.564,28.453,23.375 M27.971,23.691
		c0.013,0.01,0.011,0.007,0.021,0.02c0.039,0.096-0.009,0.348-0.064,0.391c-0.021,0.005-0.045,0.006-0.066,0.012
		c-0.005-0.012-0.011-0.021-0.014-0.029C27.799,23.971,27.916,23.752,27.971,23.691"/>
	<path clip-path="url(#SVGID_2_)" fill="#2165A9" d="M9.845,24.604c0.048-0.039,0.101-0.084,0.125-0.146
		c0.081-0.215-0.037-0.391-0.203-0.445C9.7,24.017,9.63,24.02,9.56,24.02c-0.054-0.015-0.063-0.055-0.148-0.05
		c-0.108,0.091-0.192,0.337-0.186,0.524C9.44,24.619,9.603,24.799,9.845,24.604"/>
	<path clip-path="url(#SVGID_2_)" fill="#2165A9" d="M28.988,25.188c-0.004-0.002-0.01-0.007-0.016-0.012
		c-0.001-0.008-0.006-0.016-0.006-0.02c0.07-0.094,0.127-0.06,0.217-0.122c0.12-0.079,0.126-0.272,0.045-0.375
		c-0.053-0.006-0.104-0.011-0.156-0.019c-0.092,0.013-0.182,0.024-0.273,0.033c-0.318,0.08-1.119,0.14-0.994,0.537
		c0.172,0.085,0.393-0.053,0.541-0.098c0.068-0.021,0.175-0.059,0.209-0.021c-0.017,0.053-0.034,0.105-0.05,0.157
		c-0.173,0.106-0.362,0.142-0.565,0.231c-0.102,0.045-0.166,0.143-0.25,0.209c-0.07,0.057-0.211,0.225-0.122,0.359
		c0.045,0.071,0.217,0.09,0.337,0.061c0.125-0.039,0.215-0.168,0.314-0.239c0.029-0.021,0.377-0.126,0.414-0.134
		c0.131,0.209-0.031,0.521-0.178,0.626c-0.072,0.051-0.145,0.073-0.19,0.151c-0.024,0.036,0.015,0.047,0.003,0.099
		c-0.042,0.175-0.107,0.442,0.184,0.328c0.135-0.054,0.126-0.202,0.207-0.306c0.029-0.022,0.061-0.045,0.092-0.07
		c0.228-0.242,0.319-0.534,0.297-0.987c0.149-0.106,0.51-0.01,0.708-0.079c0.112-0.056,0.067-0.313-0.029-0.35
		C29.609,25.102,29.154,25.181,28.988,25.188"/>
	<path clip-path="url(#SVGID_2_)" fill="#2165A9" d="M23.186,23.719c-0.018-0.375-0.957-0.072-1.262-0.127
		c-0.084-0.151,0.063-0.396-0.191-0.404c-0.242,0.141-0.162,0.153-0.137,0.414c-0.123,0.131-0.952,0.111-1.193,0.182
		c-0.118,0.033-0.307,0.07-0.26,0.247c0.032,0.13,0.2,0.167,0.365,0.128c0.331-0.085,0.658-0.201,1.023-0.226
		c0.002,0.009,0.004,0.017,0.008,0.026c-0.07,0.092-0.7,0.35-0.851,0.402c-0.153,0.051-0.214,0.082-0.249,0.25
		c0,0.046-0.002,0.096-0.002,0.145c0.058,0.134,0.229,0.116,0.35,0.06c0.137-0.064,0.107-0.149,0.185-0.215
		c0.085-0.077,0.386-0.212,0.53-0.226c0.006,0.01,0.01,0.016,0.016,0.021c0.053,0.145-0.18,0.121-0.271,0.148
		c-0.187,0.061-0.225,0.135-0.187,0.314c-0.005,0.003-0.006,0.003-0.007,0.008c-0.045,0.064-0.433,0.211-0.531,0.234
		c-0.209,0.059-0.564,0.021-0.475,0.31c0.036,0.075,0.273,0.151,0.406,0.109c0.061-0.026,0.123-0.058,0.187-0.084
		c0.24-0.084,0.585-0.118,0.874-0.132c0.006,0.006,0.011,0.008,0.016,0.014v0.02v0.005c-0.131,0.087-0.37,0.052-0.547,0.091
		c-0.173,0.037-0.343,0.075-0.518,0.117c-0.054,0.016-0.111,0.032-0.165,0.049c-0.155,0.009-0.397,0.039-0.55,0.084
		c-0.02,0.033-0.039,0.077-0.021,0.129c0.061,0.131,0.354,0.068,0.51,0.033c0.244-0.059,0.542-0.063,0.832-0.117
		c0.089-0.012,0.18-0.021,0.268-0.029c0.091,0.009,0.188-0.041,0.275-0.007c0.02,0.011,0.016,0.011,0.027,0.024
		c-0.158,0.273-0.671,0.086-0.956,0.156c-0.119,0.028-0.355,0.131-0.261,0.296c0.098,0.188,0.938,0.001,1.156-0.006
		c0.008,0.015,0.018,0.025,0.029,0.041c-0.062,0.162-0.142,0.455-0.31,0.511c-0.097,0.005-0.188,0.011-0.284,0.016
		c0,0.017-0.002,0.035-0.004,0.057c0.078,0.074,0.066,0.165,0.121,0.228c0.016,0.024,0.027,0.025,0.062,0.032
		c0.272-0.15,0.496-0.318,0.648-0.582c0.048-0.086,0.102-0.291,0.153-0.354c0.067-0.084,0.291-0.072,0.386-0.13
		c0.138-0.086,0.2-0.277,0.312-0.404c0.143-0.17,0.494-0.068,0.486-0.386c-0.102-0.101-0.227-0.063-0.301-0.125
		c-0.051-0.046-0.066-0.131-0.126-0.173c-0.136-0.096-0.446-0.114-0.63-0.053c-0.016-0.015-0.014-0.008-0.023-0.027
		c0.026-0.022,0.054-0.049,0.078-0.07c0.043-0.063,0.025-0.197,0.088-0.238c0.123-0.085,0.541-0.141,0.459-0.377
		c-0.043-0.122-0.292-0.199-0.455-0.188c-0.084,0-0.17,0.006-0.254,0.006c-0.008-0.006-0.016-0.007-0.021-0.013v-0.007
		C22.222,23.786,23.098,23.9,23.186,23.719 M21.037,25.063c-0.002-0.006-0.003-0.008-0.006-0.012
		c0.085-0.039,0.172-0.078,0.259-0.116c0.056-0.013,0.112-0.022,0.166-0.032h0.046c0.01,0.017,0.017,0.032,0.022,0.054
		C21.424,25.028,21.207,25.063,21.037,25.063 M22.043,25.693c-0.021-0.01-0.021-0.014-0.032-0.033
		c0.032-0.115,0.099-0.082,0.204-0.129c0.041,0,0.084,0.003,0.126,0.008c0.013,0.016,0.017,0.014,0.022,0.044
		C22.34,25.625,22.1,25.707,22.043,25.693 M22.176,25.145c0.074,0,0.162-0.005,0.217,0.008c0.004,0.008,0.008,0.021,0.013,0.033
		c-0.042,0.058-0.198,0.072-0.294,0.076c-0.012-0.01-0.021-0.019-0.033-0.027C22.082,25.159,22.125,25.171,22.176,25.145
		 M22.004,24.276c0.025-0.06,0.086-0.057,0.145-0.084c0.053-0.005,0.104-0.005,0.154-0.005c0.008,0.005,0.016,0.013,0.021,0.018
		c-0.014,0.086-0.201,0.23-0.311,0.196c-0.006,0-0.014-0.003-0.02-0.005C21.982,24.355,21.986,24.309,22.004,24.276"/>
	<path clip-path="url(#SVGID_2_)" fill="#2165A9" d="M25.514,25.503c-0.008-0.034-0.016-0.067-0.023-0.103
		c-0.033-0.082-0.127-0.105-0.25-0.1c-0.045,0.018-0.09,0.036-0.134,0.051c-0.246,0.182,0.044,0.435,0.144,0.574
		c0.127,0.178,0.293,0.348,0.484,0.457c0.087,0.03,0.176,0.061,0.263,0.094c0.128,0.068,0.29,0.172,0.458,0.188
		c0.041-0.032,0.051-0.088,0.09-0.114c0.093-0.028,0.188-0.058,0.28-0.085c0.087-0.16-0.116-0.305-0.2-0.363
		c-0.09-0.063-0.189-0.088-0.299-0.138c-0.231-0.109-0.488-0.224-0.688-0.371C25.608,25.57,25.537,25.53,25.514,25.503"/>
	<path clip-path="url(#SVGID_2_)" fill="#2165A9" d="M25.327,24.107c-0.127-0.207,0.398-1.064-0.144-1.043
		c-0.093,0.049-0.236,0.143-0.2,0.299c0.018,0.067,0.036,0.131,0.052,0.195c-0.021,0.222-0.082,0.449-0.158,0.629
		c-0.268,0.104-1.072,0.227-0.957,0.617c0.117,0.23,0.246,0.293,0.561,0.275c0.006,0.006,0.01,0.012,0.014,0.021
		c-0.135,0.357-0.398,0.736-0.623,1.024c-0.166,0.214-0.395,0.401-0.568,0.621c0.004,0.016,0.005,0.031,0.008,0.046
		c0.02,0.006,0.038,0.01,0.055,0.012c0.379-0.254,0.83-0.636,1.094-0.998c0.104-0.14,0.213-0.286,0.305-0.433
		c0.09-0.141,0.133-0.313,0.26-0.417c0.191-0.162,0.848-0.191,0.942-0.424c0.019-0.052,0.022-0.154,0.005-0.221
		C25.9,24.055,25.617,24.092,25.327,24.107"/>
</g>
</svg>
